<!DOCTYPE svg PUBLIC "-//W3C//DTD SVG 1.1//EN" "http://www.w3.org/Graphics/SVG/1.1/DTD/svg11.dtd">

<!-- Uploaded to: SVG Repo, www.svgrepo.com, Transformed by: SVG Repo Mixer Tools -->
<svg fill="#5f66ce" version="1.1" id="Capa_1" xmlns="http://www.w3.org/2000/svg" xmlns:xlink="http://www.w3.org/1999/xlink" width="236px" height="236px" viewBox="0 0 90.809 90.809" xml:space="preserve" stroke="#5f66ce">

<g id="SVGRepo_bgCarrier" stroke-width="0"/>

<g id="SVGRepo_tracerCarrier" stroke-linecap="round" stroke-linejoin="round"/>

<g id="SVGRepo_iconCarrier"> <g> <g> <path d="M40.333,8.608v16.442c-1.238-0.51-2.48-0.869-3.651-1.023c-0.136-0.307-0.292-0.579-0.448-0.824 c-3.755-5.287-17.649-2.934-25.061,4.195c-5.766,5.534-6.445,11.959-5.957,16.337c-1.801,0.876-3.021,3.042-3.021,5.532 c0,3.271,2.021,5.942,4.54,6.061c0.78,2.073,1.857,3.953,3.152,5.664C3.887,66.151,0,73.674,0,82.198h39.129l-5.125-4.528 l1.107-1.238c-1.145-0.208-2.259-0.714-3.189-1.526c-1.948-1.701-2.574-4.279-1.992-6.624c-0.628,0.055-1.233,0.224-1.873,0.224 c-1.518,0-2.988-0.224-4.433-0.527c-0.351-0.072-0.697-0.152-1.049-0.248c-2.833-0.775-5.452-2.094-7.696-3.926 c-0.265-0.191-0.517-0.415-0.771-0.632c-1.095-0.958-2.122-2.012-2.998-3.185c-1.295-1.749-2.335-3.702-3.056-5.821l-0.216-0.639 l-0.656,0.096c-0.152,0.005-0.274,0.06-0.26,0.082c-1.707,0-3.096-1.971-3.096-4.428c0-1.653,0.651-3.084,1.665-3.821 c0.439,2.168,1.081,3.523,1.201,3.505c-0.365-0.611,4.164-10.083,20.298-7.074c4.632,0.845,7.605-1.918,9.196-5.63 c0.205,0.065,0.397,0.127,0.606,0.178c10.717,2.48,13.463,12.176,13.148,12.525c0.087,0.019,0.424-1.047,0.712-2.715h0.738 c0.562,0.792,0.913,1.866,0.913,3.031c0,2.46-1.383,4.428-3.016,4.428c-0.066-0.022-0.183-0.077-0.338-0.082l-0.661-0.096 l-0.215,0.639c-0.715,2.119-1.747,4.072-3.051,5.821c-0.88,1.173-1.913,2.227-3.013,3.185c-0.246,0.222-0.495,0.44-0.747,0.632 c-0.355,0.283-0.767,0.479-1.133,0.728c0.194,0.146,0.417,0.183,0.6,0.349c0.962,0.833,1.598,1.878,1.953,3.012l1.11-1.269 l6.959,6.132l-2.32,2.662l6.787,6.781h0.922c0-8.529-3.878-16.047-9.885-21.207c1.286-1.706,2.377-3.591,3.142-5.664 c2.514-0.118,4.544-2.785,4.544-6.061c0-1.115-0.273-2.136-0.703-3.029h9.448v14.882l14.887-14.882h13.234V8.608H40.333 L40.333,8.608z M88.305,43.76h-11.78L65.143,55.136V43.76H51.78L51,42.618c0.137-3.854-0.539-8.717-3.714-12.503 c-1.273-1.531-2.829-2.806-4.48-3.805V11.087h45.499V43.76L88.305,43.76z"/> <path d="M21.51,61.365c1.054,1.633,3.591,2.787,6.548,2.787c2.95,0,5.481-1.154,6.538-2.787c-1.537,1.035-3.873,1.697-6.538,1.697 C25.391,63.062,23.05,62.4,21.51,61.365z"/> <circle cx="18.822" cy="48.958" r="2.617"/> <path d="M39.898,48.956c0-1.446-1.167-2.623-2.607-2.623c-1.454,0-2.628,1.177-2.628,2.623c0,1.451,1.174,2.628,2.628,2.628 C38.73,51.584,39.898,50.407,39.898,48.956z"/> <path d="M43.379,73.71l0.635-0.711c-0.231-0.167-0.479-0.315-0.737-0.406l-0.56,0.634C42.947,73.382,43.152,73.521,43.379,73.71z"/> <path d="M43.005,76.114l-0.61-0.516l-0.694,0.776c0.223,0.178,0.439,0.319,0.673,0.453L43.005,76.114z"/> <path d="M43.977,75.033c-0.164-0.2-0.341-0.434-0.546-0.623l-0.697,0.799l0.613,0.536L43.977,75.033z"/> <path d="M42.254,72.985l0.457-0.525c-0.087-0.011-0.162-0.011-0.246-0.011c-0.08,0-0.171,0-0.267,0 c-0.292,0.021-0.571,0.103-0.841,0.203c0.292,0.068,0.589,0.18,0.867,0.328C42.229,72.98,42.241,72.98,42.254,72.985z"/> <path d="M44.315,74.637l0.558-0.614c-0.114-0.248-0.283-0.494-0.493-0.693l-0.611,0.712 C43.977,74.235,44.168,74.429,44.315,74.637z"/> <path d="M43.045,74.101c-0.229-0.198-0.439-0.34-0.687-0.473l-0.62,0.698l0.609,0.543L43.045,74.101z"/> <path d="M41.9,73.382c-0.395-0.164-0.805-0.278-1.235-0.352c-0.064,0.06-0.131,0.112-0.191,0.188l0.894,0.771L41.9,73.382z"/> <path d="M40.76,75.435c0.182,0.229,0.343,0.422,0.553,0.609l0.693-0.796l-0.602-0.521L40.76,75.435z"/> <path d="M44.635,75.063c0.113,0.166,0.218,0.34,0.305,0.52c0.049,0.105,0.105,0.176,0.145,0.273 c0.032-0.168,0.051-0.34,0.061-0.518c0.009-0.091,0.023-0.178,0.009-0.275c-0.009-0.194-0.042-0.352-0.091-0.522L44.635,75.063z"/> <path d="M43.846,67.779l-0.937,1.074l-6.793,7.713l-0.939,1.04l5.174,4.594h0.981l1.334-1.489l5.178-5.888l1.732-1.978 L43.846,67.779z M44.853,77.422c-0.588,0.646-1.395,1.056-2.275,1.11c-0.08,0-0.147-0.021-0.241,0 c-0.789,0-1.544-0.282-2.144-0.808c-0.56-0.518-0.899-1.14-1.037-1.797c-0.223-0.99,0.018-2.076,0.735-2.872 c0.584-0.673,1.404-1.057,2.285-1.111c0.147-0.014,0.322,0.017,0.486,0.017c0.705,0.057,1.366,0.323,1.906,0.796 c0.589,0.534,0.948,1.248,1.068,2.049c0,0.059,0.035,0.141,0.031,0.228C45.729,75.914,45.437,76.758,44.853,77.422z"/> <path d="M44.285,75.458l-0.558,0.634l0.426,0.365l0.472,0.415c0.051-0.082,0.131-0.174,0.192-0.265 c-0.061-0.215-0.147-0.44-0.243-0.618C44.495,75.813,44.394,75.631,44.285,75.458z"/> <path d="M43.393,76.484L42.851,77.1c0.179,0.06,0.366,0.138,0.569,0.192c0.213,0.059,0.433,0.123,0.655,0.164 c0.077-0.073,0.14-0.137,0.21-0.21l-0.475-0.415L43.393,76.484z"/> <polygon points="42.426,82.2 44.57,82.2 43.297,81.206 "/> <path d="M41.015,74.383l-0.878-0.779c-0.071,0.079-0.152,0.166-0.192,0.28c0.114,0.365,0.278,0.771,0.528,1.129L41.015,74.383z"/> <path d="M42.486,77.483l-0.453,0.518c0.183,0.032,0.339,0.032,0.516,0.007c0.106,0,0.187-0.032,0.269-0.041 c0.206-0.043,0.383-0.07,0.575-0.144c-0.109-0.025-0.218-0.071-0.341-0.119C42.869,77.636,42.678,77.584,42.486,77.483z"/> <path d="M40.417,75.827l-0.557,0.632c0.134,0.253,0.301,0.488,0.491,0.691l0.624-0.719C40.77,76.224,40.585,76.044,40.417,75.827z "/> <path d="M41.354,76.758l-0.617,0.712c0.216,0.155,0.468,0.306,0.713,0.41l0.58-0.652C41.802,77.096,41.565,76.947,41.354,76.758z"/> <path d="M40.085,75.392c-0.154-0.258-0.306-0.507-0.426-0.755c-0.076,0.328-0.089,0.693-0.022,1.033 c0.011,0.066,0.011,0.162,0.032,0.244l0.439-0.493C40.106,75.405,40.085,75.405,40.085,75.392z"/> <path d="M66.349,40.413c4.742,0.211,9.318-2.218,11.828-6.241c2.545-4.068,2.654-9.338,0.284-13.505 c-2.338-4.114-6.795-6.733-11.53-6.733c-4.532,0-8.837,2.409-11.241,6.254c-2.437,3.905-2.652,8.924-0.548,13.021 C57.302,37.4,61.639,40.203,66.349,40.413z M79.554,26.685c0.105,2.928-0.794,5.873-2.637,8.239 c-0.027,0.032-0.053,0.062-0.082,0.1c-1.187,0-2.377,0-3.556,0c-0.21,0-0.283-0.231-0.402-0.388 c-0.34-0.475-0.684-0.944-1.028-1.42c-0.196-0.269-0.388-0.536-0.584-0.806l0,0c0.07-0.178,0.152-0.355,0.232-0.531 c0.324-0.695,0.676-1.377,0.985-2.081c0.603-1.382,0.831-2.838,1.118-4.302c0.999-0.325,1.993-0.645,2.99-0.972 C77.575,25.249,78.565,25.965,79.554,26.685z M67.387,17.169c0.985-0.717,1.978-1.433,2.963-2.149 c2.872,0.827,5.413,2.653,7.099,5.155c-0.369,1.121-0.736,2.258-1.105,3.384c-0.062,0.196-0.302,0.201-0.488,0.256 c-0.555,0.18-1.118,0.363-1.67,0.543c-0.137,0.046-0.27,0.083-0.406,0.132c-0.132-0.112-0.256-0.226-0.388-0.341 c-0.27-0.243-0.534-0.502-0.799-0.752c-0.528-0.512-1.058-1.023-1.631-1.471c-1.102-0.864-2.374-1.439-3.574-2.135 C67.387,18.921,67.387,18.043,67.387,17.169z M69.431,32.792c0.301-0.044,0.603-0.082,0.905-0.118 c0.698,0.96,1.396,1.925,2.092,2.881c-0.374,1.158-0.748,2.312-1.127,3.462c-2.189,0.82-4.607,1.027-6.957,0.535 c-0.625-0.131-1.228-0.318-1.82-0.535c-0.362-1.124-0.728-2.245-1.1-3.368c-0.059-0.196,0.133-0.342,0.242-0.501 c0.345-0.471,0.693-0.945,1.035-1.42c0.258-0.352,0.516-0.707,0.771-1.061c0.342,0.042,0.682,0.087,1.024,0.138 C66.178,33.032,67.748,33.019,69.431,32.792z M56.952,19.437c1.672-2.142,3.998-3.685,6.571-4.417 c0.954,0.691,1.907,1.385,2.865,2.081c0.164,0.125,0.096,0.349,0.096,0.545c0,0.586,0,1.172,0,1.758c0,0.132,0,0.264,0,0.399 c-1.177,0.673-2.413,1.224-3.48,2.066c-0.642,0.505-1.221,1.075-1.81,1.636c-0.273,0.254-0.547,0.521-0.828,0.766 c-0.116,0.103-0.195,0.143-0.234,0.21c-0.862-0.28-1.725-0.561-2.585-0.838c-0.374-1.15-0.748-2.303-1.122-3.455 C56.593,19.936,56.767,19.678,56.952,19.437z M54.312,26.643c0.087-0.06,0.169-0.121,0.256-0.179 c0.652-0.479,1.312-0.954,1.962-1.427c0.15-0.111,0.598-0.577,0.798-0.512c0.988,0.323,1.976,0.64,2.961,0.962 c0.287,1.498,0.531,2.964,1.149,4.367c0.336,0.746,0.712,1.473,1.04,2.217c0.041,0.086,0.078,0.176,0.117,0.261 c-0.646,0.893-1.294,1.783-1.938,2.674c-1.213,0-2.413,0-3.626,0c-1.055-1.326-1.857-2.871-2.305-4.538 C54.392,29.212,54.257,27.924,54.312,26.643z"/> </g> </g> </g>

</svg>
